<svg width="200" height="124" viewBox="0 0 200 124" fill="none" xmlns="http://www.w3.org/2000/svg">
  <g clip-path="url(#clip0_7263_157)">
    <path d="M0 8C0 3.58172 3.58172 0 8 0H192C196.418 0 200 3.58172 200 8V116C200 120.418 196.418 124 192 124H8C3.58173 124 0 120.418 0 116V8Z" fill="white"/>
    <path d="M16.8361 41.9559H85.913C92.3119 41.9559 92.3119 51.8789 85.913 51.8789H16.8361C10.4372 51.8789 10.4372 41.9559 16.8361 41.9559Z" fill="#CECECE"/>
    <path d="M16.8361 66.8789H85.913C92.3119 66.8789 92.3119 76.802 85.913 76.802H16.8361C10.4372 76.802 10.4372 66.8789 16.8361 66.8789Z" fill="#CECECE"/>
    <path d="M16.8361 91.802H85.913C92.3119 91.802 92.3119 101.725 85.913 101.725H16.8361C10.4372 101.725 10.4372 91.802 16.8361 91.802Z" fill="#CECECE"/>
    <path d="M126.751 50.0039H158.943C165.171 50.0039 165.171 59.6616 158.943 59.6616H126.751C120.523 59.6616 120.523 50.0039 126.751 50.0039Z" fill="#CECECE"/>
    <path fill-rule="evenodd" clip-rule="evenodd" d="M16.8361 41.9559H85.913C92.3119 41.9559 92.3119 51.8789 85.913 51.8789H16.8361C10.4372 51.8789 10.4372 41.9559 16.8361 41.9559ZM16.8361 66.8789H85.913C92.3119 66.8789 92.3119 76.802 85.913 76.802H16.8361C10.4372 76.802 10.4372 66.8789 16.8361 66.8789ZM16.8361 91.802H85.913C92.3119 91.802 92.3119 101.725 85.913 101.725H16.8361C10.4372 101.725 10.4372 91.802 16.8361 91.802Z" fill="#CECECE"/>
    <path fill-rule="evenodd" clip-rule="evenodd" d="M2 116C2 119.314 4.68629 122 8 122H11.8843C11.7089 119.186 14.0097 116.725 16.8361 116.725H85.913C88.7394 116.725 91.0402 119.186 90.8648 122H114V50C114 45.5817 117.581 42 122 42H198V34H200V116C200 120.418 196.418 124 192 124H8C3.58173 124 0 120.418 0 116V34H2V116ZM198 44H122C118.686 44 116 46.6863 116 50V122H123.532V87.0251C123.532 76.6455 139.628 76.6455 139.628 87.0251V122H146.067V78.9769C146.067 68.5974 162.163 68.5974 162.163 78.9769V122H168.601V91.8539C168.601 81.4743 184.697 81.4743 184.697 91.8539V122H191.136V98.2923C191.136 94.2498 194.117 90.9035 198 90.3308L198 44ZM126.751 50.0039H158.943C165.171 50.0039 165.171 59.6616 158.943 59.6616H126.751C120.523 59.6616 120.523 50.0039 126.751 50.0039Z" fill="#CECECE"/>
    <path fill-rule="evenodd" clip-rule="evenodd" d="M192 2H8C4.68629 2 2 4.68629 2 8V32H198V8C198 4.68629 195.314 2 192 2ZM8 0C3.58172 0 0 3.58172 0 8V34H200V8C200 3.58172 196.418 0 192 0H8Z" fill="#4F4F9B"/>
    <path d="M48.96 12H86.04C92.4369 12 92.4369 21.92 86.04 21.92H48.96C42.5631 21.92 42.5631 12 48.96 12Z" fill="#4F4F9B"/>
    <path d="M22.8744 4.125H22.9513C26.023 4.14641 28.5576 5.58514 30.0891 8.17236C31.6717 10.8533 31.9098 14.4535 30.6769 16.9768C30.7452 17.2748 31.2195 18.1468 31.9447 18.5468L32.1117 18.6281C32.4991 18.7889 32.8724 18.7578 33.2455 18.5347C33.5825 18.3347 33.835 18.1554 34.0398 18.015C34.5047 17.6874 35.1399 17.245 35.7669 17.8997L35.7592 17.8953C36.0962 18.2527 36.0787 18.8871 35.7119 19.7805C35.1658 21.1125 33.9154 22.6703 32.1875 22.6831C31.2577 22.6873 30.2085 22.4496 29.7519 22.3304C29.7604 22.3983 29.773 22.4662 29.7815 22.5425C30.2167 25.6618 30.2547 27.4193 29.2179 27.7896C28.3221 28.1127 27.3879 27.1897 25.7627 24.3816C25.7158 24.3008 25.6742 24.2196 25.6353 24.1399L25.5232 23.9048C25.4111 23.6663 25.3125 23.4536 25.175 23.3159L25.1145 23.2621C25.0548 23.2153 24.9943 23.1896 24.9431 23.1896C24.7985 23.1899 24.7212 23.6303 24.7124 23.6829C24.7053 23.7257 24.6965 23.7682 24.6894 23.8103L24.0939 24.5804L24.5949 24.3431C23.8582 28.3177 23.0226 28.8749 22.3581 28.875H22.3328L22.1603 28.8574C21.3235 28.701 20.8345 27.5055 20.5025 24.8364C20.4897 24.7387 20.4802 24.6452 20.4717 24.5475C20.4418 24.2326 20.4121 23.9341 20.2926 23.7894C20.2027 23.6833 19.8785 23.6961 19.6313 23.8619C19.2432 24.1257 18.9149 24.5512 18.6249 24.9298L18.4557 25.1429C17.5552 26.2316 15.8814 27.6753 14.6654 27.6753L14.4743 27.6621C14.2875 27.636 14.1136 27.5694 13.9568 27.4578C13.4409 27.0832 13.3427 26.381 13.6668 25.377C13.9356 24.5387 14.5159 23.411 15.3861 22.0195C15.2497 21.9941 15.0495 21.9896 14.8236 22.0448C12.9762 22.49 9.83482 23.0194 9.13603 21.7251L9.0767 21.5944C8.71834 20.6497 9.60557 19.6324 11.9518 18.2963C12.5662 17.9473 13.6974 17.0446 14.0601 16.6318C13.593 15.0364 13.6904 11.2244 15.5125 8.19434L15.6938 7.9043C17.2016 5.58651 19.4743 4.29308 22.3009 4.14038L22.8744 4.125ZM24.5949 24.3431L24.0939 24.5804L24.0994 24.5728L24.596 24.3398C24.5958 24.341 24.5951 24.342 24.5949 24.3431ZM24.596 24.3398L24.0994 24.5728L24.6894 23.8103C24.6582 23.9932 24.6275 24.1697 24.596 24.3398ZM22.8744 6.375C20.6483 6.375 18.9717 7.21567 17.8064 8.80298L17.5801 9.13037C16.8058 10.3221 16.3624 11.7559 16.1761 13.1096C15.9842 14.5031 16.0949 15.5765 16.2189 16.0001C16.4353 16.7395 16.2583 17.5384 15.7498 18.1172C15.4253 18.4865 14.9144 18.9205 14.4974 19.251C14.1632 19.5158 13.7648 19.8102 13.391 20.0508C13.4563 20.0381 13.522 20.0288 13.5866 20.0156L14.2963 19.8574C14.8294 19.7282 15.3506 19.7239 15.8003 19.808C16.5316 19.9448 17.1482 20.4341 17.4472 21.1154C17.6763 21.6375 17.6939 22.22 17.5131 22.7479C17.7538 22.4913 18.0404 22.2226 18.3667 22.0009L18.3788 21.9932C18.8378 21.6855 19.3497 21.5236 19.8279 21.4823C20.0688 21.4615 20.3748 21.4645 20.7079 21.5438C20.968 21.6058 21.4276 21.7585 21.8406 22.1547L22.0142 22.3403L22.0285 22.3568C22.2771 22.6579 22.4206 22.9782 22.5075 23.2346C22.5278 23.126 22.5699 22.9276 22.6393 22.7161C22.681 22.589 22.7773 22.3133 22.9656 22.0261C23.0758 21.858 23.6948 20.9397 24.9431 20.9396C25.6954 20.9396 26.2369 21.2832 26.5021 21.4911C26.9016 21.8032 27.1409 22.1642 27.2722 22.3865C27.4019 22.606 27.5081 22.8385 27.559 22.9468C27.5617 22.9525 27.5649 22.9583 27.5678 22.9644C27.5627 22.9278 27.5587 22.8906 27.5535 22.8534C27.5506 22.8329 27.5481 22.8124 27.5458 22.7919C27.5468 22.801 27.5472 22.8022 27.5425 22.771C27.5409 22.7602 27.536 22.7327 27.5326 22.7095C27.5288 22.6834 27.5243 22.6486 27.5194 22.6095C27.4267 21.869 27.7066 21.1307 28.2676 20.6385C28.8233 20.1511 29.5829 19.9678 30.299 20.1475C29.8296 19.7855 29.4764 19.3718 29.2322 19.0291C28.9287 18.6031 28.6109 18.0326 28.484 17.4789C28.3692 16.9773 28.4296 16.4515 28.6554 15.9891C29.5164 14.2269 29.3977 11.4295 28.1522 9.31824L27.9347 8.97327C26.8818 7.41282 25.3193 6.51539 23.3611 6.39038L22.9348 6.375H22.8744Z" fill="#4F4F9B"/>
    <path fill-rule="evenodd" clip-rule="evenodd" d="M25.0822 11.6406C25.716 10.6188 27.1316 10.6203 27.7644 11.6422C28.2066 12.3562 28.2066 13.3551 27.7642 14.069C27.1308 15.0908 25.7153 15.0908 25.0819 14.069C24.6394 13.3549 24.6393 12.3545 25.0822 11.6406Z" fill="#4F4F9B"/>
    <path fill-rule="evenodd" clip-rule="evenodd" d="M18.3322 11.6406C18.966 10.6188 20.3816 10.6203 21.0144 11.6422C21.4566 12.3562 21.4566 13.3551 21.0142 14.069C20.3808 15.0908 18.9653 15.0908 18.3319 14.069C17.8894 13.3549 17.8893 12.3545 18.3322 11.6406Z" fill="#4F4F9B"/>
  </g>
  <defs>
    <clipPath id="clip0_7263_157">
      <rect width="200" height="124" fill="white"/>
    </clipPath>
  </defs>
</svg>
