<svg width="200" height="200" viewBox="0 0 200 200" fill="none" xmlns="http://www.w3.org/2000/svg">
  <path d="M182.478 161.003C202.392 175.196 182.452 183.938 166.335 182.99C159.985 182.115 154.147 179.123 147.867 177.93C141.846 176.695 120.302 178.298 114.148 178.383C114.148 178.383 106.035 179.362 104.399 179.325C100.343 179.234 96.2614 178.891 92.2431 179.423C88.7935 179.882 85.4765 180.971 82.0647 181.656C76.6565 182.739 71.0776 182.788 65.562 182.568C62.5862 182.451 59.5914 182.256 56.6346 181.858H54.6381C40.6174 182.568 25.8699 189.377 8.0087 186.159C5.75947 185.755 3.40916 185.113 1.88019 183.473C0.344898 181.834 1.13272 178.43 1.88024 177.5C2.62775 176.57 3.34468 176.255 4.32527 175.627C5.30587 175 20.5584 169.347 30.4146 162.759C30.4525 159.902 30.4146 154.322 33.3904 152.609C10.3485 138.949 5.62886 112.949 17.7911 89.8421C29.827 66.9803 52.572 67.5248 52.7489 72.1681C52.8879 75.7714 30.5662 84.3362 30.5094 104.445C30.4588 121.795 36.7706 126.677 39.3168 123.862C37.7246 115.426 38.8998 93.8736 52.9638 72.8533C64.2857 55.9318 81.7804 47 103.584 47C103.767 47 103.944 47 104.127 47C125.798 47.1468 143.66 56.984 154.425 74.7008C165.229 92.4788 166.505 123.307 160.573 135.5L162.708 144.76C165.747 147.862 188.865 144.008 195.537 149.171C196.788 150.144 198.001 151.251 198.62 152.689C199.239 154.127 199.145 155.944 198.014 157.045C197.224 157.816 196.087 158.128 195 158.397C190.805 159.443 186.572 160.348 182.313 161.119" fill="url(#paint0_radial_13425_5285)"/>
  <path d="M182.478 161.003C202.392 175.196 182.452 183.938 166.335 182.99C159.985 182.115 154.147 179.123 147.867 177.93C141.846 176.695 120.302 178.298 114.148 178.383C114.148 178.383 106.035 179.362 104.399 179.325C100.343 179.234 96.2614 178.891 92.2431 179.423C88.7935 179.882 85.4765 180.971 82.0647 181.656C76.6565 182.739 71.0776 182.788 65.562 182.568C62.5862 182.451 59.5914 182.256 56.6346 181.858H54.6381C40.6174 182.568 25.8699 189.377 8.0087 186.159C5.75947 185.755 3.40916 185.113 1.88019 183.473C0.344898 181.834 1.13272 178.43 1.88024 177.5C2.62775 176.57 3.34468 176.255 4.32527 175.627C5.30587 175 20.5584 169.347 30.4146 162.759C30.4525 159.902 30.4146 154.322 33.3904 152.609C10.3485 138.949 5.62886 112.949 17.7911 89.8421C29.827 66.9803 52.572 67.5248 52.7489 72.1681C52.8879 75.7714 30.5662 84.3362 30.5094 104.445C30.4588 121.795 36.7706 126.677 39.3168 123.862C37.7246 115.426 38.8998 93.8736 52.9638 72.8533C64.2857 55.9318 81.7804 47 103.584 47C103.767 47 103.944 47 104.127 47C125.798 47.1468 143.659 56.984 154.425 74.7008C165.229 92.4788 166.505 123.307 160.573 135.5L162.708 144.76C165.747 147.862 188.865 144.008 195.537 149.171C196.788 150.144 198.001 151.251 198.62 152.689C199.239 154.127 199.145 155.944 198.014 157.045C197.224 157.816 196.087 158.128 195 158.397C190.805 159.443 186.572 160.348 182.313 161.119" stroke="#005C75" stroke-width="2" stroke-linecap="round" stroke-linejoin="round"/>
  <path d="M146.717 89H129.147C122.951 89 117.932 93.7677 117.932 99.6504V108.35C117.932 114.232 122.957 119 129.147 119H146.717C152.913 119 157.932 114.232 157.932 108.35V99.6504C157.932 93.7677 152.907 89 146.717 89Z" fill="url(#paint1_radial_13425_5285)" fill-opacity="0.4"/>
  <path d="M72.429 89H90.4348C96.7865 89 101.932 93.7677 101.932 99.6504V108.35C101.932 114.232 96.7802 119 90.4348 119H72.429C66.0773 119 60.9319 114.232 60.9319 108.35V99.6504C60.9319 93.7677 66.0836 89 72.429 89Z" fill="url(#paint2_linear_13425_5285)" fill-opacity="0.4"/>
  <path d="M88.9319 108C93.9046 108 97.9319 103.745 97.9319 98.5C97.9319 93.255 93.9046 89 88.9319 89C83.9591 89 79.9319 93.255 79.9319 98.5C79.9319 103.745 83.9591 108 88.9319 108Z" fill="#343E3D"/>
  <path d="M94.4319 98C95.8097 98 96.9319 96.8833 96.9319 95.5C96.9319 94.1167 95.8152 93 94.4319 93C93.0486 93 91.9319 94.1167 91.9319 95.5C91.9319 96.8833 93.0486 98 94.4319 98Z" fill="white"/>
  <path d="M133.432 108C138.681 108 142.932 103.745 142.932 98.5C142.932 93.255 138.681 89 133.432 89C128.189 89 123.932 93.255 123.932 98.5C123.932 103.745 128.183 108 133.432 108Z" fill="#343E3D"/>
  <path d="M136.432 97C137.81 97 138.932 95.8833 138.932 94.5C138.932 93.1167 137.815 92 136.432 92C135.049 92 133.932 93.1167 133.932 94.5C133.932 95.8778 135.049 97 136.432 97Z" fill="white"/>
  <path d="M88.9319 106C89.4819 106 89.9319 105.55 89.9319 105C89.9319 104.45 89.4819 104 88.9319 104C88.3819 104 87.9319 104.45 87.9319 105C87.9319 105.55 88.3819 106 88.9319 106Z" fill="white"/>
  <path d="M130.5 105C131.05 105 131.5 104.55 131.5 104C131.5 103.45 131.05 103 130.5 103C129.95 103 129.5 103.45 129.5 104C129.5 104.55 129.95 105 130.5 105Z" fill="white"/>
  <path d="M160.573 135.376C138.596 169.249 105.445 138.038 110.13 134.417C114.431 131.092 135.704 144.522 144.922 131" stroke="#005C75" stroke-width="2" stroke-linecap="round" stroke-linejoin="round"/>
  <path d="M115.914 173C123.641 169.505 141.218 166.332 149.148 167.122" stroke="#005C75" stroke-width="2" stroke-miterlimit="10" stroke-linecap="round"/>
  <path d="M160.573 136C161.522 139.492 165.246 155.5 165.246 155.5C170.719 157.274 177.692 159.061 182.902 161.5C202.594 175.787 183.456 183.884 167.519 182.929C161.24 182.049 155.467 179.037 149.257 177.837C143.303 176.593 121.999 178.206 115.914 178.292" stroke="#005C75" stroke-width="2" stroke-linecap="round" stroke-linejoin="round"/>
  <path d="M62.8595 152.516C56.9729 150.229 50.6167 149.031 44.254 149C41.0116 148.988 37.589 149.335 34.9642 151.136C30.821 153.97 29.9332 159.682 31.4322 164.312C33.5102 170.711 39.2874 175.596 45.7787 178.26C52.2701 180.925 59.4626 181.631 66.5394 181.898C72.1622 182.111 77.8365 182.069 83.3435 180.992C86.8111 180.311 90.1951 179.228 93.7077 178.771C97.7994 178.242 101.955 178.583 106.086 178.674C108.369 178.723 116.295 178.327 117.248 177.135C118.521 175.547 119.319 171.685 109.444 171.058C99.3241 170.413 89.1786 169.215 79.625 165.985" stroke="#005C75" stroke-width="2" stroke-miterlimit="10" stroke-linecap="round"/>
  <path d="M53.2868 30.6424C52.4154 28.5489 52.3265 26.6512 53.0319 24.9495C53.7372 23.2416 55.0946 21.9194 57.0981 20.9706C58.3902 20.3584 59.6172 20.0401 60.7731 20.0034C61.9289 19.9666 62.9603 20.2299 63.8553 20.7869C64.7563 21.344 65.4735 22.2377 66.0188 23.462C66.4159 24.3557 66.6175 25.1821 66.6293 25.9412C66.6412 26.7002 66.5286 27.4287 66.3033 28.1143C66.0722 28.7999 65.8113 29.4671 65.5268 30.116C65.2423 30.7648 64.9697 31.4076 64.7207 32.0503C64.4718 32.6931 64.3354 33.3603 64.3117 34.0398C64.288 34.7254 64.448 35.4538 64.7918 36.2374L61.9467 37.578C61.5436 36.6659 61.3243 35.8334 61.2887 35.0804C61.2532 34.3275 61.3243 33.6297 61.4962 32.9869C61.6681 32.3442 61.8815 31.7198 62.1423 31.126C62.4031 30.5322 62.6283 29.9446 62.8299 29.3691C63.0314 28.7876 63.144 28.2 63.1737 27.5878C63.2033 26.9818 63.067 26.3329 62.7647 25.6412C62.3142 24.6189 61.68 24.0068 60.8798 23.8048C60.0736 23.6089 59.1667 23.7436 58.1532 24.221C57.1396 24.6985 56.3927 25.3963 56.0371 26.2472C55.6814 27.0981 55.7407 28.1143 56.2149 29.2957L53.2868 30.6363V30.6424ZM64.9341 40.5346C65.515 40.2592 66.0899 40.2285 66.6471 40.4306C67.2102 40.6387 67.6251 41.0549 67.9037 41.6732C68.1823 42.2915 68.2119 42.9036 68.0045 43.4851C67.797 44.0667 67.3999 44.5013 66.8131 44.7706C66.2263 45.04 65.6572 45.0767 65.0941 44.8563C64.531 44.636 64.1102 44.2197 63.8316 43.5953C63.553 42.9709 63.5234 42.371 63.7427 41.8018C63.9561 41.2263 64.3591 40.804 64.94 40.5285L64.9341 40.5346Z" fill="#E17884"/>
  <path d="M77.4868 20.2535C77.5225 17.961 78.2013 16.18 79.5291 14.9167C80.8569 13.6534 82.6312 13.0124 84.8461 13.0001C86.2751 12.994 87.5255 13.222 88.6032 13.6842C89.675 14.1464 90.5145 14.8242 91.1159 15.724C91.7172 16.6237 92.0209 17.7453 92.0269 19.1011C92.0269 20.0871 91.8899 20.9313 91.5922 21.6339C91.3005 22.3364 90.9075 22.9588 90.4252 23.4888C89.9369 24.0188 89.4368 24.5241 88.9128 24.9925C88.3889 25.4608 87.8887 25.9415 87.4005 26.4222C86.9122 26.9029 86.5252 27.4575 86.2275 28.0738C85.9298 28.69 85.7869 29.4295 85.7929 30.2923L82.6491 30.3108C82.6491 29.3001 82.7741 28.4435 83.048 27.741C83.3159 27.0385 83.6613 26.4222 84.0721 25.9045C84.4829 25.3869 84.9295 24.9062 85.4058 24.4748C85.8822 24.0434 86.3228 23.5997 86.7396 23.156C87.1564 22.7123 87.4957 22.2132 87.7696 21.6709C88.0376 21.1285 88.1745 20.4753 88.1686 19.7112C88.1686 18.5772 87.8292 17.7453 87.1742 17.2215C86.5133 16.6977 85.6261 16.4327 84.5068 16.4388C83.3874 16.445 82.4228 16.7655 81.7619 17.394C81.095 18.0288 80.7437 18.984 80.7021 20.2658L77.4868 20.2473V20.2535ZM84.2031 34.3041C84.8461 34.3041 85.382 34.5137 85.8167 34.945C86.2454 35.3764 86.4657 35.931 86.4657 36.6213C86.4657 37.3115 86.2573 37.8784 85.8286 38.3283C85.3999 38.7781 84.87 39 84.2269 39C83.5839 39 83.048 38.7843 82.6133 38.3406C82.1787 37.8969 81.9643 37.3361 81.9643 36.6459C81.9643 35.9557 82.1727 35.3949 82.6014 34.9574C83.0301 34.526 83.5601 34.3041 84.2031 34.3041Z" fill="#E17884"/>
  <path d="M55.6835 103.615C55.9432 103.763 56.2727 103.828 56.7163 103.952C57.5399 104.177 58.0849 105.006 58.5094 105.811C59.992 108.629 60.2772 111.57 61.3036 114.37C61.4683 114.844 61.6711 115.211 61.8865 115.631C62.2604 116.359 62.9193 117.241 63.5149 117.679C65.2383 118.94 67.8045 119.585 69.9841 119.958C70.4339 120.035 70.9155 120.141 71.4287 120.206C71.8849 120.271 72.3855 120.342 72.8987 120.425C73.4373 120.514 73.8745 120.526 74.413 120.597L78.3478 120.911C78.5949 120.905 78.937 120.887 79.1715 120.917C80.1409 121.041 84.6332 121.017 85.818 120.905L88.3525 120.704C91.3811 120.325 96.7668 119.62 99.1746 117.484C100.999 115.856 101.817 112.873 102.545 110.321C103.699 106.255 104.231 104.106 107.481 101.81C109.11 100.661 109.065 100.798 110.719 100.798C111.194 100.798 112.956 102.1 113.399 102.461C113.539 102.579 113.646 102.674 113.773 102.798L114.825 103.964C117.163 106.711 117.315 111.92 119.507 115.826C120.299 117.235 121.243 117.945 122.574 118.596C124.481 119.537 126.965 120.088 129.138 120.372C129.556 120.431 129.936 120.479 130.374 120.55C131.254 120.692 132.027 120.668 132.883 120.78C134.993 121.059 137.09 120.97 139.2 120.97L141.69 120.905C142.045 120.905 142.146 120.834 142.463 120.834C143.565 120.816 144.573 120.644 145.618 120.573C146.632 120.502 147.69 120.337 148.66 120.177C151.15 119.768 154.603 119.111 156.523 117.59C156.865 117.318 157.175 117.016 157.435 116.649C157.524 116.525 157.53 116.489 157.632 116.359C158.398 115.359 158.804 114.08 159.165 112.819C159.311 112.304 159.425 111.825 159.583 111.292C159.665 111.026 159.71 110.777 159.78 110.546C160.337 108.611 160.92 106.373 162.118 104.84L162.2 104.74C162.548 104.331 162.853 104.089 163.41 103.946C163.67 103.875 163.847 103.846 164.094 103.775C165.14 103.479 165.248 101.62 165.406 100.365L165.881 92.0727C165.888 91.7531 165.881 91.4157 165.881 91.0901C165.881 90.3739 165.932 89.8826 165.932 89.2078V89.2197L162.675 88.5449C162.143 88.4561 161.547 88.3792 160.958 88.2963C160.426 88.2134 159.837 88.1779 159.26 88.0832L148.558 87.2664C147.88 87.2723 147.386 87.2013 146.676 87.2013C145.473 87.2013 144.186 87.071 142.97 87.071C142.343 87.071 141.715 87.071 141.088 87.071C140.442 87.077 139.947 87.0059 139.263 87.0059L132.515 87.071C132.135 87.0651 131.926 87.1125 131.628 87.1361L126.927 87.3315C126.68 87.3374 126.692 87.3729 126.483 87.3966C126.344 87.4084 126.185 87.3907 126.046 87.3966L122.529 87.8168C117.974 88.6455 116.802 90.1845 113.741 91.2085C111.15 92.0668 107.988 92.0431 105.485 90.8889L103.382 89.9063C101.443 88.8823 99.5484 88.172 97.3751 87.7991C96.3233 87.6156 92.9905 87.2486 91.9704 87.2604L80.521 87C79.8367 87 79.3425 87.0651 78.6962 87.0651C77.4037 87.0592 76.2442 87.1302 74.9896 87.1302C73.7351 87.1302 72.5312 87.2545 71.2766 87.2545C70.9218 87.2545 70.7888 87.3256 70.3959 87.3256L67.6841 87.4558C67.1075 87.515 66.4739 87.5327 65.8593 87.586C64.8835 87.6748 63.2741 87.876 62.3681 87.9056C61.8295 87.9234 61.1199 88.0063 60.6383 88.0832L55.9813 88.8349V88.5508L42.7324 88.1897L39.9319 98.4654L55.6708 103.591L55.6835 103.615ZM118.766 96.9501C118.962 96.37 119.406 95.3637 119.742 94.908C120.553 93.7952 120.172 94.2805 120.99 93.4519C121.307 93.1322 121.706 92.7771 122.175 92.5048C124.114 91.3565 125.362 90.9599 127.674 90.51C128.91 90.2733 129.841 90.2614 130.919 90.0898L145.561 89.8767C148.571 89.8767 152.436 90.2259 154.869 91.9366C155.046 92.0549 155.154 92.1437 155.306 92.2739C155.914 92.8067 156.035 92.8955 156.561 93.6649L156.992 94.3338C158.81 97.5361 158.493 102.112 158.069 105.829C157.106 114.181 152.937 117.774 146.334 118.508C143.629 118.809 141.855 118.839 139.092 118.839C137.514 118.845 136.114 118.768 134.555 118.78C134.125 118.78 133.903 118.709 133.447 118.709L131.787 118.644C131.52 118.632 131.533 118.584 131.292 118.573C129.246 118.46 126.445 118.034 124.69 117.034C123.607 116.424 122.821 115.82 122.01 114.784C120.16 112.429 119.228 108.309 118.766 105.261C118.335 102.467 117.834 99.7439 118.766 96.9501ZM61.5951 101.076C61.5951 99.0336 61.9879 96.1451 62.9256 94.5055C63.046 94.2865 63.1474 94.1089 63.2868 93.8899C63.4072 93.7064 63.5276 93.5051 63.6543 93.3512C64.1549 92.7179 64.7504 92.1852 65.3967 91.759C67.8551 90.1667 71.6441 89.8885 74.5904 89.8885H83.1062C83.7778 89.8885 84.2467 89.9537 84.8803 89.9537C86.1285 89.9537 87.288 89.9714 88.4222 90.078C88.5806 90.0898 88.7517 90.072 88.9101 90.0839L91.7676 90.4213C92.7751 90.5811 93.8776 90.8297 94.8153 91.1316C95.8735 91.4689 96.4881 91.7412 97.4638 92.3154C98.0024 92.6232 98.4396 92.9487 98.9021 93.3571L99.3773 93.8366C99.4914 93.9609 99.5104 93.955 99.6244 94.0675C99.8272 94.2569 99.8145 94.3516 99.9539 94.5232L100.461 95.2276C101.5 97.027 101.741 98.6666 101.741 100.94L101.722 100.951C101.722 102.26 101.386 104.402 101.17 105.645C100.67 108.546 99.9793 111.529 98.5663 113.902C98.0404 114.784 97.3878 115.566 96.6211 116.164C96.3803 116.353 96.1522 116.531 95.9115 116.69C95.6644 116.862 95.4426 116.957 95.1575 117.105C93.6621 117.892 91.2861 118.407 89.607 118.513C89.2902 118.531 88.8467 118.543 88.5172 118.596L85.2985 118.774C80.1662 118.75 73.3739 119.372 68.7295 117.182C67.9312 116.803 66.5879 115.968 65.9606 115.305C65.5044 114.826 65.0356 114.37 64.6491 113.79C64.0788 112.932 63.6923 112.316 63.2931 111.292C63.2678 111.227 63.2551 111.18 63.2234 111.109C63.1854 110.996 63.2044 111.061 63.1474 110.937C62.7419 110.025 62.2223 107.687 62.0576 106.687C61.8105 105.184 61.8168 104.331 61.6648 103.053L61.5761 101.076H61.5951Z" fill="#343E3D"/>
  <path d="M117.991 127C113.862 127.56 107.541 129.887 101.374 135" stroke="#005C75" stroke-width="2" stroke-linecap="round" stroke-linejoin="round"/>
  <defs>
    <radialGradient id="paint0_radial_13425_5285" cx="0" cy="0" r="1" gradientUnits="userSpaceOnUse" gradientTransform="translate(96.173 116.998) scale(88.8761 86.0573)">
      <stop stop-color="#60B5D2"/>
      <stop offset="0.3" stop-color="#57B1D0"/>
      <stop offset="0.56" stop-color="#0FA0BB"/>
      <stop offset="0.6" stop-color="#069EB9"/>
      <stop offset="0.72" stop-color="#0495B0"/>
      <stop offset="0.91" stop-color="#017D9A"/>
      <stop offset="1" stop-color="#00718F"/>
    </radialGradient>
    <radialGradient id="paint1_radial_13425_5285" cx="0" cy="0" r="1" gradientUnits="userSpaceOnUse" gradientTransform="translate(133.942 104.441) scale(25.3715 30.3732)">
      <stop offset="0.08" stop-color="#E1F3F4"/>
      <stop offset="0.49" stop-color="#D2EFF3"/>
      <stop offset="1" stop-color="#01161E"/>
    </radialGradient>
    <linearGradient id="paint2_linear_13425_5285" x1="101.971" y1="104.026" x2="60.9336" y2="104.026" gradientUnits="userSpaceOnUse">
      <stop offset="0.08" stop-color="#E1F3F4"/>
      <stop offset="0.49" stop-color="#D2EFF3"/>
      <stop offset="1" stop-color="#01161E"/>
    </linearGradient>
  </defs>
</svg>
